<svg width="557px" height="449px" viewBox="-321.893 -20.518 557.122 449.262" xmlns="http://www.w3.org/2000/svg" xmlns:bx="https://boxy-svg.com">
  <defs>
    <pattern id="pattern-0" x="0" y="0" width="25" height="25" patternUnits="userSpaceOnUse" viewBox="0 0 100 100">
      <rect x="0" y="0" width="50" height="100" style="fill: black;"></rect>
    </pattern>
    <pattern id="pattern-2" x="0" y="0" width="25" height="25" patternUnits="userSpaceOnUse" viewBox="0 0 100 100">
      <rect x="0" y="0" width="50" height="100" style="fill: black;"></rect>
    </pattern>
  </defs>
  <g transform="matrix(1, 0, 0, 1, -150.649307, -36.5755)">
    <rect x="-36.366" y="32.826" width="401.071" height="414.622" style="fill: none; stroke: rgb(0, 0, 0); stroke-width: 3;" rx="15.659" ry="15.659"></rect>
    <text style="fill: rgb(51, 51, 51); font-family: sans-serif; font-size: 16px; white-space: pre;" x="132.465" y="55.659">digit_fizz</text>
    <line style="stroke: rgb(0, 0, 0); stroke-width: 2px;" x1="-36.69" y1="63.824" x2="364.611" y2="63.824"></line>
    <text x="-28.949" y="273.809" style="fill: rgb(51, 51, 51); font-family: sans-serif; font-size: 16px; white-space: pre;">fizz</text>
    <text x="-28.334" y="84.229" style="fill: rgb(51, 51, 51); font-family: sans-serif; font-size: 16px; white-space: pre;">digit</text>
    <text x="-28.334" y="84.229" style="fill: rgb(51, 51, 51); font-family: sans-serif; font-size: 16px; white-space: pre;" transform="matrix(1, 0, 0, 1, 15.190369390525035, 46.68251659264019)">entry / print_digit</text>
  </g>
  <g>
    <path style="stroke: rgb(0, 0, 0); fill: none; stroke-width: 2px;" d="M -212.997 76.517 C -191.804 76.517 -178.557 53.575 -189.154 35.221 C -199.751 16.867 -226.242 16.867 -236.839 35.221 C -241.064 42.538 -241.694 51.39 -238.55 59.232" transform="matrix(-0.195307, -0.980742, 0.980742, -0.195307, -302.614575, -150.320923)"></path>
    <path d="M 52.991 13.003 L 60.431 25.89 L 45.55 25.89 L 52.991 13.003 Z" style="" transform="matrix(0.646251, 0.763125, -0.763126, 0.64625, -212.053711, 14.836601)" bx:shape="triangle 45.55 13.003 14.881 12.887 0.5 0 1@5e4c3892"></path>
    <text style="fill: rgb(51, 51, 51); font-family: serif; font-size: 16px; font-style: italic; white-space: pre;" x="-310.613" y="58.566">increment</text>
  </g>
  <line style="stroke-width: 2px; stroke: rgb(0, 0, 0); stroke-dasharray: 8px;" x1="-186.901" y1="216.07" x2="214.105" y2="216.07"></line>
</svg>
