<svg width="329px" height="280px" viewBox="-307.051 -6.275 329.119 280.598" xmlns="http://www.w3.org/2000/svg" xmlns:bx="https://boxy-svg.com">
  <defs>
    <pattern id="pattern-0" x="0" y="0" width="25" height="25" patternUnits="userSpaceOnUse" viewBox="0 0 100 100">
      <rect x="0" y="0" width="50" height="100" style="fill: black;"></rect>
    </pattern>
    <pattern id="pattern-2" x="0" y="0" width="25" height="25" patternUnits="userSpaceOnUse" viewBox="0 0 100 100">
      <rect x="0" y="0" width="50" height="100" style="fill: black;"></rect>
    </pattern>
  </defs>
  <g transform="matrix(1, 0, 0, 1, -141.125778, -236.627365)">
    <g transform="matrix(1, 0, 0, 1, -119.99913, 340.100403)">
      <g transform="matrix(1, 0, 0, 1, 207.143494, 21.344221)">
        <rect x="-81.892" y="46.198" width="142.386" height="88.013" style="fill: none; stroke: rgb(0, 0, 0); stroke-width: 3;" rx="15.659" ry="15.659"></rect>
        <text x="-49.504" y="67.69" style="fill: rgb(51, 51, 51); font-family: sans-serif; font-size: 16px; white-space: pre;">on</text>
        <line style="stroke: rgb(0, 0, 0); stroke-width: 2px;" x1="-80.642" y1="75.308" x2="61.053" y2="75.308"></line>
        <text x="-68.469" y="109.14" style="fill: rgb(51, 51, 51); font-family: sans-serif; font-size: 16px; white-space: pre;">entry / print_buzz</text>
      </g>
    </g>
    <g transform="matrix(1, 0, 0, 1, -90.356941, 223.095795)">
      <rect x="-28.562" y="46.198" width="98.949" height="88.013" style="fill: none; stroke: rgb(0, 0, 0); stroke-width: 3;" rx="15.659" ry="15.659"></rect>
      <text x="-6.504" y="67.69" style="fill: rgb(51, 51, 51); font-family: sans-serif; font-size: 16px; white-space: pre;">pending</text>
      <line style="stroke: rgb(0, 0, 0); stroke-width: 2px;" x1="-27.694" y1="75.308" x2="70.775" y2="75.308"></line>
    </g>
    <g transform="matrix(1, 0, 0, 1, -172.090057, 191.093506)">
      <ellipse style="" transform="matrix(0.6, 0.8, -0.8, 0.6, 66.684728, -8.839179)" cx="51.177" cy="44.699" rx="7.288" ry="7.288"></ellipse>
      <path style="stroke: rgb(0, 0, 0); fill: none; stroke-width: 2;" d="M 67.134 54.917 C 67.134 54.917 72.585 50.566 82.249 54.161 C 91.913 57.756 92.4 65.968 92.4 65.968"></path>
      <path d="M 52.991 13.003 L 60.431 25.89 L 45.55 25.89 L 52.991 13.003 Z" style="" transform="matrix(0.646251, 0.763125, -0.763125, 0.64625, 75.1945, 14.086562)" bx:shape="triangle 45.55 13.003 14.881 12.887 0.5 0 1@5e4c3892"></path>
    </g>
    <g transform="matrix(1, 0, 0, 1, -216.063263, 298.76123)">
      <path style="stroke: rgb(0, 0, 0); fill: none; stroke-width: 2;" d="M 195.252 42.259 C 195.252 42.259 226.141 39.658 244.583 61.434 C 263.025 83.21 257.584 103.499 257.584 103.499"></path>
      <path d="M 52.991 13.003 L 60.431 25.89 L 45.55 25.89 L 52.991 13.003 Z" style="" transform="matrix(0.486196, 0.87385, -0.845777, 0.536652, 250.63063, 39.0117)" bx:shape="triangle 45.55 13.003 14.881 12.887 0.5 0 1@5e4c3892"></path>
      <text style="fill: rgb(51, 51, 51); font-family: serif; font-size: 16px; font-style: italic; white-space: pre;" x="221.909" y="41.792">[ i % 5 == 0 ]</text>
    </g>
    <g transform="matrix(1, 0, 0, 1, -120.694977, 357.941772)">
      <rect x="-28.562" y="46.198" width="98.949" height="88.013" style="fill: none; stroke: rgb(0, 0, 0); stroke-width: 3;" rx="15.659" ry="15.659"></rect>
      <text x="8.496" y="67.69" style="fill: rgb(51, 51, 51); font-family: sans-serif; font-size: 16px; white-space: pre;">off</text>
      <line style="stroke: rgb(0, 0, 0); stroke-width: 2px;" x1="-27.694" y1="75.308" x2="70.775" y2="75.308"></line>
    </g>
    <g>
      <path style="stroke: rgb(0, 0, 0); fill: none; stroke-width: 2;" d="M -80.576 357.879 C -80.576 357.879 -78.009 365.929 -77.307 372.976 C -76.605 380.023 -77.254 394.157 -77.254 394.157"></path>
      <path d="M 52.991 13.003 L 60.431 25.89 L 45.55 25.89 L 52.991 13.003 Z" style="" transform="matrix(0.486196, 0.87385, -0.845777, 0.536652, -84.350334, 334.743347)" bx:shape="triangle 45.55 13.003 14.881 12.887 0.5 0 1@5e4c3892"></path>
    </g>
  </g>
</svg>
