<svg width="552px" height="547px" viewBox="-321.893 -20.518 552.156 547.906" xmlns="http://www.w3.org/2000/svg" xmlns:bx="https://boxy-svg.com">
  <defs>
    <pattern id="pattern-0" x="0" y="0" width="25" height="25" patternUnits="userSpaceOnUse" viewBox="0 0 100 100">
      <rect x="0" y="0" width="50" height="100" style="fill: black;"></rect>
    </pattern>
    <pattern id="pattern-2" x="0" y="0" width="25" height="25" patternUnits="userSpaceOnUse" viewBox="0 0 100 100">
      <rect x="0" y="0" width="50" height="100" style="fill: black;"></rect>
    </pattern>
  </defs>
  <g transform="matrix(1, 0, 0, 1, -150.649307, -36.5755)">
    <rect x="-36.366" y="32.826" width="401.071" height="511.829" style="fill: none; stroke: rgb(0, 0, 0); stroke-width: 3;" rx="15.659" ry="15.659"></rect>
    <text style="fill: rgb(51, 51, 51); font-family: sans-serif; font-size: 16px; white-space: pre;" x="132.465" y="55.659">digit_fizz</text>
    <line style="stroke: rgb(0, 0, 0); stroke-width: 2px;" x1="-36.69" y1="63.824" x2="364.611" y2="63.824"></line>
    <text x="-28.949" y="273.809" style="fill: rgb(51, 51, 51); font-family: sans-serif; font-size: 16px; white-space: pre;">fizz</text>
    <text x="-28.334" y="84.229" style="fill: rgb(51, 51, 51); font-family: sans-serif; font-size: 16px; white-space: pre;">digit</text>
    <g transform="matrix(1, 0, 0, 1, 76.225868, 62.768459)">
      <g transform="matrix(1, 0, 0, 1, -62, 21)">
        <rect x="-22.315" y="46.198" width="92.725" height="88.013" style="fill: none; stroke: rgb(0, 0, 0); stroke-width: 3;" rx="15.659" ry="15.659"></rect>
        <text x="13.496" y="67.69" style="fill: rgb(51, 51, 51); font-family: sans-serif; font-size: 16px; white-space: pre;">off</text>
        <line style="stroke: rgb(0, 0, 0); stroke-width: 2px;" x1="-21.5" y1="75.308" x2="70.775" y2="75.308"></line>
      </g>
      <g transform="matrix(1, 0, 0, 1, -143.733124, -11.002293)">
        <ellipse style="" transform="matrix(0.6, 0.8, -0.8, 0.6, 66.684728, -8.839179)" cx="51.177" cy="44.699" rx="7.288" ry="7.288"></ellipse>
        <path style="stroke: rgb(0, 0, 0); fill: none; stroke-width: 2;" d="M 67.134 54.917 C 67.134 54.917 72.585 50.566 82.249 54.161 C 91.913 57.756 92.4 65.968 92.4 65.968"></path>
        <path d="M 52.991 13.003 L 60.431 25.89 L 45.55 25.89 L 52.991 13.003 Z" style="" transform="matrix(0.646251, 0.763125, -0.763125, 0.64625, 75.1945, 14.086562)" bx:shape="triangle 45.55 13.003 14.881 12.887 0.5 0 1@5e4c3892"></path>
      </g>
      <g transform="matrix(1, 0, 0, 1, -187.706329, 40.665421)">
        <path style="stroke: rgb(0, 0, 0); fill: none; stroke-width: 2;" d="M 195.252 42.259 C 195.252 42.259 222.759 33.346 253.959 38.227 C 285.159 43.108 303.251 54.429 303.251 54.429"></path>
        <path d="M 52.991 13.003 L 60.431 25.89 L 45.55 25.89 L 52.991 13.003 Z" style="" transform="matrix(0.988555, -0.150861, 0.15086, 0.988555, 248.4216, 41.762432)" bx:shape="triangle 45.55 13.003 14.881 12.887 0.5 0 1@5e4c3892"></path>
        <text style="fill: rgb(51, 51, 51); font-family: serif; font-size: 16px; font-style: italic; white-space: pre;" x="211.909" y="31.792" transform="matrix(1, 0, 0, 1, 1, -5)">in fizz.off<tspan x="211.90899658203125" dy="1em">​</tspan></text>
      </g>
      <g transform="matrix(1, 0, 0, 1, 207.143494, 21.344221)">
        <rect x="-81.892" y="46.198" width="142.386" height="88.013" style="fill: none; stroke: rgb(0, 0, 0); stroke-width: 3;" rx="15.659" ry="15.659"></rect>
        <text x="-49.504" y="67.69" style="fill: rgb(51, 51, 51); font-family: sans-serif; font-size: 16px; white-space: pre;">on</text>
        <line style="stroke: rgb(0, 0, 0); stroke-width: 2px;" x1="-80.642" y1="75.308" x2="61.053" y2="75.308"></line>
        <text x="-68.469" y="109.14" style="fill: rgb(51, 51, 51); font-family: sans-serif; font-size: 16px; white-space: pre;">entry / print_digit</text>
      </g>
    </g>
  </g>
  <g>
    <path style="stroke: rgb(0, 0, 0); fill: none; stroke-width: 2px;" d="M -212.997 76.517 C -191.804 76.517 -178.557 53.575 -189.154 35.221 C -199.751 16.867 -226.242 16.867 -236.839 35.221 C -241.064 42.538 -241.694 51.39 -238.55 59.232" transform="matrix(-0.195307, -0.980742, 0.980742, -0.195307, -302.614575, -150.320923)"></path>
    <path d="M 52.991 13.003 L 60.431 25.89 L 45.55 25.89 L 52.991 13.003 Z" style="" transform="matrix(0.646251, 0.763125, -0.763126, 0.64625, -212.053711, 14.836601)" bx:shape="triangle 45.55 13.003 14.881 12.887 0.5 0 1@5e4c3892"></path>
    <text style="fill: rgb(51, 51, 51); font-family: serif; font-size: 16px; font-style: italic; white-space: pre;" x="-310.613" y="58.566">increment</text>
  </g>
  <line style="stroke-width: 2px; stroke: rgb(0, 0, 0); stroke-dasharray: 8px;" x1="-186.901" y1="216.07" x2="214.105" y2="216.07"></line>
  <g transform="matrix(1, 0, 0, 1, 21.433748, -5.719101)">
    <g transform="matrix(1, 0, 0, 1, -119.99913, 340.100403)">
      <g transform="matrix(1, 0, 0, 1, 207.143494, 21.344221)">
        <rect x="-81.892" y="46.198" width="142.386" height="88.013" style="fill: none; stroke: rgb(0, 0, 0); stroke-width: 3;" rx="15.659" ry="15.659"></rect>
        <text x="-49.504" y="67.69" style="fill: rgb(51, 51, 51); font-family: sans-serif; font-size: 16px; white-space: pre;">on</text>
        <line style="stroke: rgb(0, 0, 0); stroke-width: 2px;" x1="-80.642" y1="75.308" x2="61.053" y2="75.308"></line>
        <text x="-68.469" y="109.14" style="fill: rgb(51, 51, 51); font-family: sans-serif; font-size: 16px; white-space: pre;">entry / print_fizz</text>
      </g>
    </g>
    <g transform="matrix(1, 0, 0, 1, -90.356941, 223.095795)">
      <rect x="-28.562" y="46.198" width="98.949" height="88.013" style="fill: none; stroke: rgb(0, 0, 0); stroke-width: 3;" rx="15.659" ry="15.659"></rect>
      <text x="-6.504" y="67.69" style="fill: rgb(51, 51, 51); font-family: sans-serif; font-size: 16px; white-space: pre;">pending</text>
      <line style="stroke: rgb(0, 0, 0); stroke-width: 2px;" x1="-27.694" y1="75.308" x2="70.775" y2="75.308"></line>
    </g>
    <g transform="matrix(1, 0, 0, 1, -172.090057, 191.093506)">
      <ellipse style="" transform="matrix(0.6, 0.8, -0.8, 0.6, 66.684728, -8.839179)" cx="51.177" cy="44.699" rx="7.288" ry="7.288"></ellipse>
      <path style="stroke: rgb(0, 0, 0); fill: none; stroke-width: 2;" d="M 67.134 54.917 C 67.134 54.917 72.585 50.566 82.249 54.161 C 91.913 57.756 92.4 65.968 92.4 65.968"></path>
      <path d="M 52.991 13.003 L 60.431 25.89 L 45.55 25.89 L 52.991 13.003 Z" style="" transform="matrix(0.646251, 0.763125, -0.763125, 0.64625, 75.1945, 14.086562)" bx:shape="triangle 45.55 13.003 14.881 12.887 0.5 0 1@5e4c3892"></path>
    </g>
    <g transform="matrix(1, 0, 0, 1, -216.063263, 298.76123)">
      <path style="stroke: rgb(0, 0, 0); fill: none; stroke-width: 2;" d="M 195.252 42.259 C 195.252 42.259 226.141 39.658 244.583 61.434 C 263.025 83.21 257.584 103.499 257.584 103.499"></path>
      <path d="M 52.991 13.003 L 60.431 25.89 L 45.55 25.89 L 52.991 13.003 Z" style="" transform="matrix(0.486196, 0.87385, -0.845777, 0.536652, 250.63063, 39.0117)" bx:shape="triangle 45.55 13.003 14.881 12.887 0.5 0 1@5e4c3892"></path>
      <text style="fill: rgb(51, 51, 51); font-family: serif; font-size: 16px; font-style: italic; white-space: pre;" x="221.909" y="41.792">[ i % 3 == 0 ]</text>
    </g>
    <g transform="matrix(1, 0, 0, 1, -120.694977, 357.941772)">
      <rect x="-28.562" y="46.198" width="98.949" height="88.013" style="fill: none; stroke: rgb(0, 0, 0); stroke-width: 3;" rx="15.659" ry="15.659"></rect>
      <text x="8.496" y="67.69" style="fill: rgb(51, 51, 51); font-family: sans-serif; font-size: 16px; white-space: pre;">off</text>
      <line style="stroke: rgb(0, 0, 0); stroke-width: 2px;" x1="-27.694" y1="75.308" x2="70.775" y2="75.308"></line>
    </g>
    <g>
      <path style="stroke: rgb(0, 0, 0); fill: none; stroke-width: 2;" d="M -80.576 357.879 C -80.576 357.879 -78.009 365.929 -77.307 372.976 C -76.605 380.023 -77.254 394.157 -77.254 394.157"></path>
      <path d="M 52.991 13.003 L 60.431 25.89 L 45.55 25.89 L 52.991 13.003 Z" style="" transform="matrix(0.486196, 0.87385, -0.845777, 0.536652, -84.350334, 334.743347)" bx:shape="triangle 45.55 13.003 14.881 12.887 0.5 0 1@5e4c3892"></path>
    </g>
  </g>
</svg>
