<?xml version="1.0" encoding="utf-8"?>
<svg viewBox="-111.18638610839844 -43.07823944091797 395.9986877441406 192.48013305664062" width="395.9986877441406" height="192.48013305664062" xmlns="http://www.w3.org/2000/svg" xmlns:bx="https://boxy-svg.com">
  <g transform="matrix(1, 0, 0, 1, 0, 0)">
    <g>
      <rect x="-88.152" y="-10.866" width="262.559" height="148.015" style="fill: none; stroke-width: 3; fill-opacity: 0.2; stroke: rgb(210, 208, 208);" rx="15.659" ry="15.659"/>
      <path style="fill: rgb(216, 216, 216); stroke-width: 3; fill-opacity: 0.2; stroke: rgb(210, 208, 208);" d="M -87.235 21.511 L 173.872 21.511"/>
      <text x="15.955" y="14.711" style="fill: rgb(51, 51, 51); fill-opacity: 0.2; font-family: sans-serif; font-size: 24px; stroke-width: 3px; white-space: pre;">Off</text>
    </g>
    <g transform="matrix(1, 0, 0, 1, -2, 10)">
      <rect x="-14.856" y="46.198" width="56.462" height="59.889" style="fill: none; stroke: rgb(0, 0, 0); stroke-width: 3;" rx="15.659" ry="15.659"/>
      <text x="8.117" y="83.687" style="fill: rgb(51, 51, 51); font-family: sans-serif; font-size: 16px; white-space: pre;">A</text>
    </g>
    <g transform="matrix(1, 0, 0, 1, -2, 10)">
      <rect x="102.478" y="59.132" width="56.462" height="59.889" style="fill: none; stroke: rgb(0, 0, 0); stroke-width: 3;" rx="15.659" ry="15.659"/>
      <text x="125.183" y="93.983" style="fill: rgb(51, 51, 51); font-family: sans-serif; font-size: 16px; white-space: pre;">B</text>
    </g>
    <g transform="matrix(1, 0, 0, 1, -2, 10)">
      <path d="M 52.991 13.003 L 60.431 25.89 L 45.55 25.89 L 52.991 13.003 Z" style="" transform="matrix(0.999043, 0.043751, -0.043751, 0.999043, -75.254522, 30.734625)" bx:shape="triangle 45.55 13.003 14.881 12.887 0.5 0 1@5e4c3892"/>
      <text x="-66.43" y="46.318" style="fill: rgb(51, 51, 51); font-family: sans-serif; font-size: 16px; white-space: pre;">flick</text>
      <path d="M 461.164 554.224 A 63.697 63.697 0 1 1 383.028 484.088 L 383.263 485.06 A 62.697 62.697 0 1 0 460.172 554.095 Z" style="fill: none; stroke: rgb(0, 0, 0); stroke-width: 4.35656;" transform="matrix(0.382873, 0.253299, -0.253299, 0.382873, -48.968494, -229.270981)" bx:shape="pie 398 546 62.697 63.697 97.418 346.405 1@eb644306"/>
    </g>
    <g transform="matrix(1, 0, 0, 1, -2, 10)">
      <text x="50.45" y="50.987" style="fill: rgb(51, 51, 51); font-family: sans-serif; font-size: 16px; white-space: pre;">after 2 s</text>
      <path style="stroke: rgb(0, 0, 0); fill: none; stroke-width: 2;" d="M 41.869 67.712 C 41.869 67.712 48.971 54.864 64.596 54.485 C 80.221 54.106 92.077 62.89 92.077 62.89"/>
      <path d="M 52.991 13.003 L 60.431 25.89 L 45.55 25.89 L 52.991 13.003 Z" style="" transform="matrix(0.999043, 0.043751, -0.043751, 0.999043, 42.678887, 40.822474)" bx:shape="triangle 45.55 13.003 14.881 12.887 0.5 0 1@5e4c3892"/>
    </g>
    <g transform="matrix(1, 0, 0, 1, -83.733116, -22.002293)">
      <ellipse style="" transform="matrix(0.6, 0.8, -0.8, 0.6, 66.684728, -8.839179)" cx="51.177" cy="44.699" rx="7.288" ry="7.288"/>
      <path style="stroke: rgb(0, 0, 0); fill: none; stroke-width: 2;" d="M 67.134 54.917 C 67.134 54.917 72.585 50.566 82.249 54.161 C 91.913 57.756 92.4 65.968 92.4 65.968"/>
      <path d="M 52.991 13.003 L 60.431 25.89 L 45.55 25.89 L 52.991 13.003 Z" style="" transform="matrix(0.646251, 0.763125, -0.763125, 0.64625, 75.1945, 14.086562)" bx:shape="triangle 45.55 13.003 14.881 12.887 0.5 0 1@5e4c3892"/>
    </g>
  </g>
  <g transform="matrix(1, 0, 0, 1, 0, 0)">
    <path style="stroke: rgb(0, 0, 0); fill: none; stroke-width: 2; stroke-linejoin: round; stroke-linecap: round;" d="M 174.949 99.415 C 174.949 99.415 229.086 60.204 255.198 80.721 C 281.31 101.238 278.268 111.287 278.268 111.287"/>
    <path d="M 52.991 13.003 L 60.431 25.89 L 45.55 25.89 L 52.991 13.003 Z" style="" transform="matrix(0.65779, 0.753202, -0.7532, 0.657792, 259.547486, 56.194117)" bx:shape="triangle 45.55 13.003 14.881 12.887 0.5 0 1@5e4c3892"/>
    <text x="224.003" y="70.158" style="fill: rgb(51, 51, 51); font-family: sans-serif; font-size: 16px; white-space: pre;">flick</text>
  </g>
  <g transform="matrix(1, 0, 0, 1, -160.04922485351562, -89.05534362792969)">
    <ellipse style="fill: rgb(210, 208, 208); stroke-width: 0;" transform="matrix(0.6, 0.8, -0.8, 0.6, 66.684728, -8.839179)" cx="51.177" cy="44.699" rx="7.288" ry="7.288"/>
    <path style="fill: none; stroke-width: 2; stroke: rgb(210, 208, 208);" d="M 67.134 54.917 C 67.134 54.917 72.585 50.566 82.249 54.161 C 91.913 57.756 92.4 65.968 92.4 65.968"/>
    <path d="M 52.991 13.003 L 60.431 25.89 L 45.55 25.89 L 52.991 13.003 Z" style="fill: rgb(210, 208, 208);" transform="matrix(0.646251, 0.763125, -0.763125, 0.64625, 75.1945, 14.086562)" bx:shape="triangle 45.55 13.003 14.881 12.887 0.5 0 1@5e4c3892"/>
  </g>
</svg>
