<?xml version="1.0" encoding="utf-8"?>
<svg viewBox="53 43 380 190" width="380" height="190" xmlns="http://www.w3.org/2000/svg">
  <rect x="55.016" y="43.294" width="385.022" height="208.097" style="fill: none;" transform="matrix(1, 0, 0, 1, 0, 0)">
    <title>Outline</title>
  </rect>
  <g transform="matrix(1, 0, 0, 1, 0, 0)">
    <rect x="69.115" y="63.175" width="105.292" height="73.974" style="fill: none; stroke: rgb(0, 0, 0); stroke-width: 3;" rx="15.659" ry="15.659"/>
    <path style="fill: rgb(216, 216, 216); stroke: rgb(0, 0, 0); stroke-width: 3;" d="M 69.114 92.333 L 173.872 92.333"/>
    <text x="104.192" y="85.533" style="fill: rgb(51, 51, 51); font-family: sans-serif; font-size: 24px; stroke-width: 3px; white-space: pre;">Off</text>
  </g>
  <g transform="matrix(1, 0, 0, 1, 189.96713256835938, 57.20753860473633)">
    <rect x="70.115" y="63.175" width="153.315" height="99.67" style="fill: none; stroke: rgb(0, 0, 0); stroke-width: 3; pointer-events: none;" rx="15.659" ry="15.659"/>
    <path style="fill: rgb(216, 216, 216); stroke: rgb(0, 0, 0); stroke-width: 3;" d="M 69.114 92.333 L 224.001 92.333"/>
    <text x="150.192" y="85.533" style="fill: rgb(51, 51, 51); font-family: sans-serif; font-size: 24px; stroke-width: 3px; white-space: pre;">On</text>
    <text x="77.886" y="116.674" style="fill: rgb(51, 51, 51); font-family: sans-serif; font-size: 16px; white-space: pre;">entry / turn light on</text>
    <text x="78.057" y="138.792" style="fill: rgb(51, 51, 51); font-family: sans-serif; font-size: 16px; white-space: pre;">exit / turn light off</text>
  </g>
  <path style="stroke: rgb(0, 0, 0); fill: none; stroke-width: 2; stroke-linejoin: round; stroke-linecap: round;" d="M 174.949 99.415 C 174.949 99.415 229.086 60.204 255.198 80.721 C 281.31 101.238 279.331 118.371 279.331 118.371 L 283.996 111.258 L 279.31 118.242 L 272.846 111.823" transform="matrix(1, 0, 0, 1, 0, 0)"/>
  <path style="fill: rgb(216, 216, 216); stroke: rgb(0, 0, 0);" d="M 196.778 105.647" transform="matrix(1, 0, 0, 1, 0, 0)"/>
  <path style="fill: rgb(216, 216, 216); stroke: rgb(0, 0, 0);" d="M 206.199 158.873" transform="matrix(1, 0, 0, 1, 0, 0)"/>
  <path style="stroke: rgb(0, 0, 0); fill: none; stroke-width: 2; stroke-linejoin: round; stroke-linecap: round;" d="M 146.185 174.043 C 146.185 174.043 178.576 135.477 213.846 157.878 C 249.116 180.279 260.671 202.42 260.671 202.42 L 261.721 193.884 L 260.651 202.44 L 252.572 199.704" transform="matrix(-0.9767900109291077, -0.2142000049352646, 0.2142000049352646, -0.9767900109291077, 365.3313293457031, 392.9093322753906)"/>
  <text x="224.003" y="70.158" style="fill: rgb(51, 51, 51); font-family: sans-serif; font-size: 16px; white-space: pre;" transform="matrix(1, 0, 0, 1, 0, 0)">flick</text>
  <text x="161.796" y="201.503" style="fill: rgb(51, 51, 51); font-family: sans-serif; font-size: 16px; white-space: pre;" transform="matrix(1, 0, 0, 1, 0, 0)">flick</text>
</svg>
