<?xml version="1.0" encoding="utf-8"?>
<svg viewBox="399.658203125 195.47857666015625 319.771728515625 283.44183349609375" width="305.4481506347656" height="269.48553466796875" xmlns="http://www.w3.org/2000/svg" xmlns:bx="https://boxy-svg.com">
  <g transform="matrix(1.0882550477981567, 0, 0, 0.9794310331344604, 295.11417388916016, 144.54101181030273)" style="">
    <rect x="102.478" y="59.132" width="280.677" height="275.145" style="fill: none; stroke: rgb(0, 0, 0); stroke-width: 3;" rx="15.659" ry="15.659"/>
    <text x="190.183" y="84.983" style="fill: rgb(51, 51, 51); font-family: sans-serif; font-size: 16px; white-space: pre;">D</text>
    <path style="fill: rgb(216, 216, 216); stroke: rgb(0, 0, 0); stroke-width: 3;" d="M 103.909 98.587 L 382.579 98.587"/>
    <text x="338.951" y="282.095" style="fill: rgb(51, 51, 51); font-family: sans-serif; font-size: 16px; white-space: pre;" transform="matrix(1.121833, 0, 0, 1.186524, -258.007111, -211.823074)">entry / turn light on</text>
    <text x="339.122" y="304.213" style="fill: rgb(51, 51, 51); font-family: sans-serif; font-size: 16px; white-space: pre;" transform="matrix(1.121833, 0, 0, 1.186524, -258.007111, -211.823074)">exit / turn light off</text>
    <g transform="matrix(1.121833, 0, 0, 1.186524, 310.942169, 177.960098)" style="">
      <rect x="-14.856" y="46.198" width="56.462" height="59.889" style="fill: none; stroke: rgb(0, 0, 0); stroke-width: 2.51788;" rx="15.659" ry="15.659"/>
      <text x="8.117" y="83.687" style="fill: rgb(51, 51, 51); font-family: sans-serif; font-size: 16px; stroke-width: 2.51788px; white-space: pre;">F</text>
    </g>
    <g transform="matrix(0.918902, 0, 0, 1.021, 195.622757, 175.841202)" style="">
      <text x="121.45" y="12.987" style="fill: rgb(51, 51, 51); font-family: sans-serif; font-size: 16px; white-space: pre;">after 0.5 s</text>
      <path style="stroke: rgb(0, 0, 0); fill: none; stroke-width: 2;" d="M 71.687 39.154 C 71.687 39.154 92.319 7.004 115.539 14.037 C 138.759 21.07 139.277 42.529 139.277 42.529"/>
      <path d="M 52.991 13.003 L 60.431 25.89 L 45.55 25.89 L 52.991 13.003 Z" style="" transform="matrix(-0.999584, 0.02884, -0.028843, -0.999584, 192.297647, 65.478925)" bx:shape="triangle 45.55 13.003 14.881 12.887 0.5 0 1@5e4c3892"/>
    </g>
    <g transform="matrix(1.121833, 0, 0, 1.186524, 139.043976, 129.335999)" style="">
      <rect x="-14.856" y="46.198" width="123.796" height="113.514" style="fill: none; stroke: rgb(0, 0, 0); stroke-width: 2.51788;" rx="15.659" ry="15.659"/>
      <text x="45.795" y="68.201" style="fill: rgb(51, 51, 51); font-family: sans-serif; font-size: 16px; white-space: pre;">E</text>
      <g transform="matrix(1, 0, 0, 1, 52.648926, 38.037197)" style="">
        <rect x="-14.856" y="46.198" width="56.462" height="59.889" style="fill: none; stroke: rgb(0, 0, 0); stroke-width: 2.51788;" rx="15.659" ry="15.659"/>
        <text x="8.117" y="83.687" style="fill: rgb(51, 51, 51); font-family: sans-serif; font-size: 16px; stroke-width: 2.51788px; white-space: pre;">G</text>
      </g>
      <g transform="matrix(0.819108, 0, 0, 0.860497, 49.612343, 53.377678)">
        <path d="M 52.991 13.003 L 60.431 25.89 L 45.55 25.89 L 52.991 13.003 Z" style="" transform="matrix(0.999043, 0.043751, -0.043751, 0.999043, -75.254522, 30.734625)" bx:shape="triangle 45.55 13.003 14.881 12.887 0.5 0 1@5e4c3892"/>
        <text x="-66.43" y="46.318" style="fill: rgb(51, 51, 51); font-family: sans-serif; font-size: 16px; white-space: pre;">flick</text>
        <path d="M 461.164 554.224 A 63.697 63.697 0 1 1 383.028 484.088 L 383.263 485.06 A 62.697 62.697 0 1 0 460.172 554.095 Z" style="fill: none; stroke: rgb(0, 0, 0); stroke-width: 4.35656;" transform="matrix(0.382873, 0.253299, -0.253299, 0.382873, -48.968494, -229.270981)" bx:shape="pie 398 546 62.697 63.697 97.418 346.405 1@eb644306"/>
      </g>
    </g>
    <g transform="matrix(0.918902, 0, 0, 1.021001, 55.977158, 104.368713)" style="">
      <ellipse style="" transform="matrix(0.6, 0.8, -0.8, 0.6, 66.684728, -8.839179)" cx="51.177" cy="44.699" rx="7.288" ry="7.288"/>
      <path style="stroke: rgb(0, 0, 0); fill: none; stroke-width: 2;" d="M 67.134 54.917 C 67.134 54.917 72.585 50.566 82.249 54.161 C 91.913 57.756 92.4 65.968 92.4 65.968"/>
      <path d="M 52.991 13.003 L 60.431 25.89 L 45.55 25.89 L 52.991 13.003 Z" style="" transform="matrix(0.646251, 0.763125, -0.763125, 0.64625, 75.1945, 14.086562)" bx:shape="triangle 45.55 13.003 14.881 12.887 0.5 0 1@5e4c3892"/>
    </g>
  </g>
</svg>
