<svg viewBox="-99.324 -22.912 229.293 169.041" width="229px" height="169px" xmlns="http://www.w3.org/2000/svg" xmlns:bx="https://boxy-svg.com">
  <defs></defs>
  <g>
    <g>
      <rect x="-88.152" y="-10.866" width="207.398" height="148.015" style="fill: none; stroke: rgb(0, 0, 0); stroke-width: 3;" rx="15.659" ry="15.659"></rect>
      <path style="fill: rgb(216, 216, 216); stroke: rgb(0, 0, 0); stroke-width: 3;" d="M -87.235 21.511 L 118.711 21.511"></path>
      <text x="0.955" y="14.711" style="fill: rgb(51, 51, 51); font-family: sans-serif; font-size: 24px; stroke-width: 3px; white-space: pre;">Off</text>
    </g>
    <g transform="matrix(1, 0, 0, 1, -51.229309, 11.186249)">
      <rect x="-14.856" y="46.198" width="56.462" height="59.889" style="fill: none; stroke: rgb(0, 0, 0); stroke-width: 3;" rx="15.659" ry="15.659"></rect>
      <text x="8.117" y="83.687" style="fill: rgb(51, 51, 51); font-family: sans-serif; font-size: 16px; white-space: pre;">A</text>
    </g>
    <g transform="matrix(1, 0, 0, 1, -51.229309, 11.186249)">
      <rect x="102.478" y="59.132" width="56.462" height="59.889" style="fill: none; stroke: rgb(0, 0, 0); stroke-width: 3;" rx="15.659" ry="15.659"></rect>
      <text x="125.183" y="93.983" style="fill: rgb(51, 51, 51); font-family: sans-serif; font-size: 16px; white-space: pre;">B</text>
    </g>
    <g transform="matrix(1, 0, 0, 1, -51.229309, 11.186249)">
      <text x="50.45" y="50.987" style="fill: rgb(51, 51, 51); font-family: sans-serif; font-size: 16px; white-space: pre;">after 2 s</text>
      <path style="stroke: rgb(0, 0, 0); fill: none; stroke-width: 2;" d="M 41.869 67.712 C 41.869 67.712 48.971 54.864 64.596 54.485 C 80.221 54.106 92.077 62.89 92.077 62.89"></path>
      <path d="M 52.991 13.003 L 60.431 25.89 L 45.55 25.89 L 52.991 13.003 Z" style="" transform="matrix(0.999043, 0.043751, -0.043751, 0.999043, 42.678887, 40.822474)" bx:shape="triangle 45.55 13.003 14.881 12.887 0.5 0 1@5e4c3892"></path>
    </g>
    <g transform="matrix(1, 0, 0, 1, -132.962433, -20.816044)">
      <ellipse style="" transform="matrix(0.6, 0.8, -0.8, 0.6, 66.684728, -8.839179)" cx="51.177" cy="44.699" rx="7.288" ry="7.288"></ellipse>
      <path style="stroke: rgb(0, 0, 0); fill: none; stroke-width: 2;" d="M 67.134 54.917 C 67.134 54.917 72.585 50.566 82.249 54.161 C 91.913 57.756 92.4 65.968 92.4 65.968"></path>
      <path d="M 52.991 13.003 L 60.431 25.89 L 45.55 25.89 L 52.991 13.003 Z" style="" transform="matrix(0.646251, 0.763125, -0.763125, 0.64625, 75.1945, 14.086562)" bx:shape="triangle 45.55 13.003 14.881 12.887 0.5 0 1@5e4c3892"></path>
    </g>
  </g>
</svg>
