<?xml version="1.0" encoding="utf-8"?>
<svg viewBox="399.658203125 195.47857666015625 319.771728515625 283.44183349609375" width="319.771728515625" height="283.44183349609375" xmlns="http://www.w3.org/2000/svg" xmlns:xlink="http://www.w3.org/1999/xlink">
  <defs>
    <pattern id="pattern-0-0" patternTransform="matrix(1, 0, 0, 1.000005, 236.706482, 231.147552)" xlink:href="#pattern-0"/>
    <pattern id="pattern-0" x="0" y="0" width="20" height="20" patternUnits="userSpaceOnUse" viewBox="0 0 100 100">
      <path d="M 0 0 L 50 0 L 50 100 L 0 100 Z" style="fill: black;"/>
    </pattern>
    <pattern id="pattern-2-0" patternTransform="matrix(0.999999, 0, 0, 1.000002, 202.069946, 159.117004)" xlink:href="#pattern-2"/>
    <pattern id="pattern-2" x="0" y="0" width="20" height="20" patternUnits="userSpaceOnUse" viewBox="0 0 100 100">
      <path d="M 0 0 L 50 0 L 50 100 L 0 100 Z" style="fill: black;"/>
    </pattern>
    <pattern id="pattern-2-1" patternTransform="matrix(1, 0, 0, 1, 242.061493, 275.783997)" xlink:href="#pattern-2"/>
  </defs>
  <g transform="matrix(1.0882550477981567, 0, 0, 0.9794310927391051, 295.1141662597656, 144.541015625)" style="">
    <rect x="102.478" y="59.132" width="280.677" height="275.145" style="fill: none; stroke: rgb(0, 0, 0); stroke-width: 3;" rx="15.659" ry="15.659"/>
    <text x="190.25" y="84.983" style="fill: rgb(51, 51, 51); font-family: sans-serif; font-size: 16px; white-space: pre;">A parallel state</text>
    <path style="fill: rgb(216, 216, 216); stroke: rgb(0, 0, 0); stroke-width: 3;" d="M 103.909 98.587 L 382.579 98.587"/>
    <line style="stroke: url(#pattern-0-0); stroke-width: 2.90179;" x1="107.617" y1="241.148" x2="385.794" y2="241.148" transform="matrix(-1, 0, 0, -1, 493.411025, 482.296006)"/>
    <line style="stroke-width: 2.90179; stroke: url(#pattern-2-0);" x1="148.502" y1="169.116" x2="275.638" y2="169.116" transform="matrix(0, -1.111109, 0.900001, 0, 59.865365, 404.748961)"/>
    <line style="stroke-width: 2.90179; stroke: url(#pattern-2-1);" x1="212.823" y1="285.784" x2="291.3" y2="285.784" transform="matrix(0, -1.111109, 0.900001, 0, -5.144512, 565.851877)"/>
  </g>
</svg>
