<svg viewBox="442.551513671875 247.43296813964844 231.21652221679688 145.82472229003906" width="445px" height="244px" xmlns="http://www.w3.org/2000/svg" xmlns:bx="https://boxy-svg.com">
  <defs>
    <pattern id="pattern-0" x="0" y="0" width="20" height="20" patternUnits="userSpaceOnUse" viewBox="0 0 100 100">
      <path d="M 0 0 L 50 0 L 50 100 L 0 100 Z" style="fill: black;"></path>
    </pattern>
    <pattern id="pattern-2" x="0" y="0" width="20" height="20" patternUnits="userSpaceOnUse" viewBox="0 0 100 100">
      <path d="M 0 0 L 50 0 L 50 100 L 0 100 Z" style="fill: black;"></path>
    </pattern>
  </defs>
  <g transform="matrix(1, 0, 0, 1, 350.377808, 201.169785)" style="">
    <rect x="138.542" y="103.334" width="166.8" height="68.505" style="fill: none; stroke: rgb(0, 0, 0); stroke-width: 3;" rx="15.659" ry="15.659"></rect>
    <text x="164.639" y="142.165" style="fill: rgb(51, 51, 51); font-family: sans-serif; font-size: 16px; white-space: pre;">important_state</text>
  </g>
  <g transform="matrix(1, 0, 0, 1, 530.815002, 222.427505)">
    <g transform="matrix(0.735385, 0.677652, -0.677652, 0.735385, 32.693718, 46.898354)">
      <path d="M 52.991 13.003 L 60.431 25.89 L 45.55 25.89 L 52.991 13.003 Z" style="" transform="matrix(0.999042, 0.043751, -0.043751, 0.999042, -75.254523, 30.73463)" bx:shape="triangle 45.55 13.003 14.881 12.887 0.5 0 1@5e4c3892"></path>
      <path d="M 461.164 554.224 A 63.697 63.697 0 1 1 383.028 484.088 L 383.263 485.06 A 62.697 62.697 0 1 0 460.172 554.095 Z" style="fill: none; stroke: rgb(0, 0, 0); stroke-width: 4.35656;" transform="matrix(0.382873, 0.253299, -0.253299, 0.382873, -48.968494, -229.270981)" bx:shape="pie 398 546 62.697 63.697 97.418 346.405 1@eb644306"></path>
    </g>
    <text x="-66.43" y="46.318" style="fill: rgb(51, 51, 51); font-family: sans-serif; font-size: 16px; white-space: pre;">again</text>
  </g>
</svg>
